<svg viewBox="0 0 800 600" class="w-full h-auto"><rect x="30" y="30" width="740" height="540" fill="none" stroke="currentColor" stroke-width="2" class="text-gray-400 dark:text-gray-500"></rect><text x="45" y="55" class="text-sm fill-current text-gray-700 dark:text-gray-300" style="font-family: inherit;">Your Cloud Account</text><rect x="80" y="100" width="640" height="280" fill="none" stroke="currentColor" stroke-width="2" class="text-gray-400 dark:text-gray-500"></rect><text x="95" y="125" class="text-sm fill-current text-gray-700 dark:text-gray-300" style="font-family: inherit;">Your VPC</text><g><rect x="100" y="150" width="290" height="210" fill="none" stroke="currentColor" stroke-width="1" class="text-gray-600 dark:text-gray-400" rx="4"></rect><rect x="270" y="135" width="100" height="28" fill="currentColor" class="text-purple-100 dark:text-purple-900" rx="14"></rect><text x="320" y="153" class="text-xs fill-current text-purple-700 dark:text-purple-300 text-center" text-anchor="middle" style="font-family: inherit;">Control Plane</text><text x="245" y="255" class="fill-current text-gray-900 dark:text-white text-center" text-anchor="middle" style="font-family: inherit;">AutoMQ Console</text></g><g><rect x="410" y="150" width="290" height="210" fill="none" stroke="currentColor" stroke-width="1" class="text-gray-600 dark:text-gray-400" rx="4"></rect><rect x="580" y="135" width="100" height="28" fill="currentColor" class="text-blue-100 dark:text-blue-900" rx="14"></rect><text x="630" y="153" class="text-xs fill-current text-blue-700 dark:text-blue-300 text-center" text-anchor="middle" style="font-family: inherit;">Data Plane</text><rect x="445" y="200" width="220" height="50" fill="none" stroke="currentColor" stroke-width="1" class="text-gray-500 dark:text-gray-500" rx="3"></rect><text x="555" y="230" class="text-sm fill-current text-gray-900 dark:text-white text-center" text-anchor="middle" style="font-family: inherit;">KRaft(MetaData)</text><rect x="445" y="270" width="220" height="50" fill="none" stroke="currentColor" stroke-width="1" class="text-gray-500 dark:text-gray-500" rx="3"></rect><text x="555" y="300" class="text-sm fill-current text-gray-900 dark:text-white text-center" text-anchor="middle" style="font-family: inherit;">Broker(Stateless)</text></g><g><rect x="80" y="420" width="640" height="130" fill="none" stroke="currentColor" stroke-width="2" class="text-gray-400 dark:text-gray-500"></rect><text x="95" y="445" class="text-sm fill-current text-gray-700 dark:text-gray-300" style="font-family: inherit;">Cloud Service</text><g class="text-gray-500 dark:text-gray-400"><g transform="translate(218, 465) scale(0.07)"><path d="M482.304 106.624c-82.816-0.384-163.968 12.16-228.48 31.872-34.304 10.624-63.744 23.04-86.4 37.376-22.656 14.336-39.68 30.336-44.672 51.328-0.256 1.28-0.384 2.688-0.384 3.968 0 0.512 0 1.152 0.128 1.664 0.128 2.688 0.384 5.376 1.024 7.936l79.36 579.712c0.128 0.512 0.128 0.896 0.256 1.408 3.968 17.664 18.048 29.312 35.328 39.04 17.152 9.6 38.912 17.536 63.616 23.808 49.408 12.928 110.08 19.968 165.632 19.712 70.528 0.512 134.144-5.376 184.32-16.64 50.176-11.264 87.552-26.24 106.112-52.48 1.536-2.048 2.432-4.352 2.816-6.784l35.072-250.368c8.192 2.048 16.128 3.84 23.936 5.248 14.08 2.432 27.136 3.84 39.68 1.536 6.016-1.152 12.416-3.456 17.92-7.936 5.504-4.608 9.472-11.52 10.752-18.816 0.128-0.768 0.128-1.536 0.256-2.304 0.256-21.504-15.232-35.968-31.744-48.896-14.336-11.136-31.104-20.992-46.848-28.8l34.56-246.144c0.256-1.92 0.256-3.968-0.256-5.888-5.504-21.504-23.04-37.504-45.696-51.328-22.784-13.824-51.84-25.6-84.608-35.456-65.408-19.968-145.28-32.128-215.168-32.512-5.504-0.128-11.008-0.256-16.512-0.256z m0 31.104c5.248 0 10.624 0.128 15.872 0.256h0.384c66.432 0.384 144.256 12.416 206.336 31.232 30.976 9.472 57.984 20.608 77.312 32.384 17.92 10.88 27.648 22.144 30.592 30.208-2.688 8.832-10.752 18.432-25.856 28.288-17.28 11.264-42.88 21.504-73.472 29.952-61.312 16.64-142.72 25.856-222.592 25.856h-0.256c-73.728 1.408-160.768-6.784-228.096-23.424-33.664-8.32-62.592-18.816-81.792-30.336-16.256-9.728-24.32-19.072-26.496-27.392l-0.256-1.792c2.432-7.68 11.776-19.2 29.952-30.848 19.2-12.032 46.592-23.808 78.976-33.792 60.928-18.688 139.904-30.976 219.392-30.592z m323.328 147.328l-35.456 253.44c-8.448-2.432-16.768-4.864-24.192-7.168-66.176-23.424-163.84-65.152-227.328-96.384v-0.512c0-19.712-16.384-35.968-35.968-35.968-19.456 0-35.84 16.256-35.84 35.968 0 19.584 16.384 35.84 35.84 35.84 8.192 0 15.744-2.816 21.888-7.552 65.152 32.128 163.072 73.984 231.296 98.176 0.256 0 0.512 0.128 0.768 0.256 8.576 2.432 18.688 5.504 29.056 8.704l-34.944 248.96c-10.112 12.544-40.192 28.416-85.632 38.656-46.848 10.624-108.544 16.512-177.408 15.872h-0.256c-52.608 0.256-111.616-6.784-157.696-18.688-22.912-5.888-42.496-13.184-56.192-20.864-13.44-7.552-19.2-15.232-19.968-18.688L161.152 286.72c1.28 0.64 2.432 1.408 3.456 2.176 23.68 14.08 54.912 25.088 90.368 33.92 71.04 17.408 159.616 25.728 236.032 24.192 82.176 0 165.504-9.216 230.656-27.008 32.512-8.832 60.672-19.84 82.304-33.792 0.512-0.256 1.024-0.768 1.664-1.152z m-322.944 144.64c2.944 0 4.736 1.92 4.736 4.736 0 2.688-1.792 4.736-4.736 4.736-2.688 0-4.736-2.048-4.736-4.736 0-2.816 2.048-4.736 4.736-4.736z m322.688 81.28c11.52 6.144 22.912 13.312 32.128 20.608 12.8 9.984 17.664 19.2 18.432 22.016-0.64 0.256-0.64 0.512-2.176 0.768-5.504 1.024-16.128 0.64-28.416-1.664-7.68-1.28-16.256-3.328-24.96-5.504z" fill="currentColor" class="text-gray-500 dark:text-gray-400"></path></g><text x="293" y="495" class="text-sm fill-current" style="font-family: inherit;">S3 Bucket</text><text x="293" y="512" class="text-xs fill-current" style="font-family: inherit;">(Logs &amp; Metrics)</text></g><g class="text-gray-500 dark:text-gray-400"><g transform="translate(528, 465) scale(0.07)"><path d="M482.304 106.624c-82.816-0.384-163.968 12.16-228.48 31.872-34.304 10.624-63.744 23.04-86.4 37.376-22.656 14.336-39.68 30.336-44.672 51.328-0.256 1.28-0.384 2.688-0.384 3.968 0 0.512 0 1.152 0.128 1.664 0.128 2.688 0.384 5.376 1.024 7.936l79.36 579.712c0.128 0.512 0.128 0.896 0.256 1.408 3.968 17.664 18.048 29.312 35.328 39.04 17.152 9.6 38.912 17.536 63.616 23.808 49.408 12.928 110.08 19.968 165.632 19.712 70.528 0.512 134.144-5.376 184.32-16.64 50.176-11.264 87.552-26.24 106.112-52.48 1.536-2.048 2.432-4.352 2.816-6.784l35.072-250.368c8.192 2.048 16.128 3.84 23.936 5.248 14.08 2.432 27.136 3.84 39.68 1.536 6.016-1.152 12.416-3.456 17.92-7.936 5.504-4.608 9.472-11.52 10.752-18.816 0.128-0.768 0.128-1.536 0.256-2.304 0.256-21.504-15.232-35.968-31.744-48.896-14.336-11.136-31.104-20.992-46.848-28.8l34.56-246.144c0.256-1.92 0.256-3.968-0.256-5.888-5.504-21.504-23.04-37.504-45.696-51.328-22.784-13.824-51.84-25.6-84.608-35.456-65.408-19.968-145.28-32.128-215.168-32.512-5.504-0.128-11.008-0.256-16.512-0.256z m0 31.104c5.248 0 10.624 0.128 15.872 0.256h0.384c66.432 0.384 144.256 12.416 206.336 31.232 30.976 9.472 57.984 20.608 77.312 32.384 17.92 10.88 27.648 22.144 30.592 30.208-2.688 8.832-10.752 18.432-25.856 28.288-17.28 11.264-42.88 21.504-73.472 29.952-61.312 16.64-142.72 25.856-222.592 25.856h-0.256c-73.728 1.408-160.768-6.784-228.096-23.424-33.664-8.32-62.592-18.816-81.792-30.336-16.256-9.728-24.32-19.072-26.496-27.392l-0.256-1.792c2.432-7.68 11.776-19.2 29.952-30.848 19.2-12.032 46.592-23.808 78.976-33.792 60.928-18.688 139.904-30.976 219.392-30.592z m323.328 147.328l-35.456 253.44c-8.448-2.432-16.768-4.864-24.192-7.168-66.176-23.424-163.84-65.152-227.328-96.384v-0.512c0-19.712-16.384-35.968-35.968-35.968-19.456 0-35.84 16.256-35.84 35.968 0 19.584 16.384 35.84 35.84 35.84 8.192 0 15.744-2.816 21.888-7.552 65.152 32.128 163.072 73.984 231.296 98.176 0.256 0 0.512 0.128 0.768 0.256 8.576 2.432 18.688 5.504 29.056 8.704l-34.944 248.96c-10.112 12.544-40.192 28.416-85.632 38.656-46.848 10.624-108.544 16.512-177.408 15.872h-0.256c-52.608 0.256-111.616-6.784-157.696-18.688-22.912-5.888-42.496-13.184-56.192-20.864-13.44-7.552-19.2-15.232-19.968-18.688L161.152 286.72c1.28 0.64 2.432 1.408 3.456 2.176 23.68 14.08 54.912 25.088 90.368 33.92 71.04 17.408 159.616 25.728 236.032 24.192 82.176 0 165.504-9.216 230.656-27.008 32.512-8.832 60.672-19.84 82.304-33.792 0.512-0.256 1.024-0.768 1.664-1.152z m-322.944 144.64c2.944 0 4.736 1.92 4.736 4.736 0 2.688-1.792 4.736-4.736 4.736-2.688 0-4.736-2.048-4.736-4.736 0-2.816 2.048-4.736 4.736-4.736z m322.688 81.28c11.52 6.144 22.912 13.312 32.128 20.608 12.8 9.984 17.664 19.2 18.432 22.016-0.64 0.256-0.64 0.512-2.176 0.768-5.504 1.024-16.128 0.64-28.416-1.664-7.68-1.28-16.256-3.328-24.96-5.504z" fill="currentColor" class="text-gray-500 dark:text-gray-400"></path></g><text x="603" y="495" class="text-sm fill-current" style="font-family: inherit;">S3 Bucket</text><text x="603" y="512" class="text-xs fill-current" style="font-family: inherit;">(Streaming Data)</text></g></g><defs><marker id="arrowhead-byoc" markerWidth="10" markerHeight="7" refX="9" refY="3.5" orient="auto" markerUnits="userSpaceOnUse"><polygon points="0 0, 10 3.5, 0 7" fill="currentColor" class="fill-gray-400 dark:fill-gray-500"></polygon></marker></defs><path d="M 245 360 L 245 465" fill="none" stroke="currentColor" stroke-width="2" class="text-gray-400 dark:text-gray-500" marker-end="url(#arrowhead-byoc)"></path><path d="M 555 360 L 555 465" fill="none" stroke="currentColor" stroke-width="2" class="text-gray-400 dark:text-gray-500" marker-end="url(#arrowhead-byoc)"></path></svg>
